P3
10
10
255
255 255 255

45 8 43

255 255 255

100 81 95

100 81 95

100 81 95

100 81 95

100 81 95

100 81 95

100 81 95

100 81 95

255 255 255

255 255 255

255 255 255

255 255 255

255 255 255

255 255 255

255 255 255

255 255 255

255 255 255

255 255 255

255 255 255

255 255 255

255 255 255

255 255 255

255 255 255

255 255 255

255 255 255

255 255 255

255 255 255

255 255 255

255 255 255

255 255 255

255 255 255

255 255 255

255 255 255

255 255 255

255 255 255

255 255 255

255 255 255

255 255 255

255 255 255

255 255 255

255 255 255

255 255 255

255 255 255

255 255 255

255 255 255

255 255 255

255 255 255

255 255 255

255 255 255

255 255 255

255 255 255

255 255 255

255 255 255

255 255 255

255 255 255

255 255 255

255 255 255

255 255 255

255 255 255

255 255 255

255 255 255

255 255 255

255 255 255

255 255 255

255 255 255

255 255 255

255 255 255

255 255 255

255 255 255

255 255 255

255 255 255

255 255 255

255 255 255

255 255 255

255 255 255

255 255 255

255 255 255

255 255 255

255 255 255

255 255 255

255 255 255

255 255 255

255 255 255

255 255 255

255 255 255

255 255 255

255 255 255

255 255 255

255 255 255

255 255 255

255 255 255

255 255 255

255 255 255

255 255 255

255 255 255

255 255 255

255 255 255

